<svg width="64" height="64" viewBox="0 0 64 64" fill="none" xmlns="http://www.w3.org/2000/svg">
<rect width="64" height="64" rx="10" fill="#73F3C3"/>
<g filter="url(#filter0_d_9_8)">
<path d="M16.3306 39.377C15.6134 39.377 14.966 39.0882 14.3882 38.5104C13.8304 37.9127 13.5515 37.0959 13.5515 36.06C13.5515 35.542 13.6212 34.9543 13.7607 34.2969C13.9001 33.6195 14.0496 32.9322 14.2089 32.2349C14.3882 31.5376 14.5476 30.8802 14.6871 30.2626C14.8265 29.645 14.8962 29.1271 14.8962 28.7087C14.8962 28.37 14.8166 28.1011 14.6572 27.9018C14.4978 27.6827 14.2886 27.5731 14.0296 27.5731C13.691 27.5731 13.3224 27.7723 12.924 28.1708L12.7447 28.0513C12.7247 27.7325 12.7945 27.354 12.9538 26.9157C13.1132 26.4774 13.3722 26.059 13.7308 25.6606C14.0894 25.2422 14.5576 24.8936 15.1353 24.6147C15.7131 24.3358 16.4004 24.1963 17.1973 24.1963C18.0938 24.1963 18.7611 24.5151 19.1994 25.1526C19.6576 25.7702 19.8868 26.5173 19.8868 27.3938C19.8868 27.4934 19.8868 27.603 19.8868 27.7225C19.8868 27.8222 19.8768 27.9218 19.8569 28.0214C20.2354 27.4038 20.6737 26.8061 21.1717 26.2284C21.6897 25.6506 22.2675 25.1725 22.905 24.794C23.5624 24.3955 24.2696 24.1963 25.0267 24.1963C26.0029 24.1963 26.6802 24.5151 27.0587 25.1526C27.4373 25.7702 27.6265 26.4774 27.6265 27.2743C27.6265 27.4337 27.6166 27.5931 27.5966 27.7524C27.5966 27.8919 27.5867 28.0313 27.5668 28.1708C27.9851 27.5532 28.4433 26.9456 28.9414 26.3479C29.4594 25.7303 30.0471 25.2223 30.7045 24.8239C31.3619 24.4055 32.119 24.1963 32.9756 24.1963C34.0315 24.1963 34.7487 24.5051 35.1272 25.1227C35.5257 25.7403 35.7249 26.4674 35.7249 27.3042C35.7249 28.0413 35.6352 28.888 35.4559 29.8443C35.2766 30.7806 35.0973 31.707 34.918 32.6234C34.7387 33.5398 34.6491 34.3168 34.6491 34.9543C34.6491 35.3328 34.6989 35.6416 34.7985 35.8807C34.918 36.1197 35.1073 36.2393 35.3663 36.2393C35.5854 36.2393 35.7847 36.1795 35.964 36.06C36.1632 35.9205 36.3026 35.7611 36.3823 35.5818L36.6214 35.6715C36.6214 36.4086 36.4122 37.0561 35.9938 37.6139C35.5755 38.1717 35.0475 38.61 34.41 38.9288C33.7725 39.2276 33.135 39.377 32.4975 39.377C31.7205 39.377 31.0332 39.118 30.4355 38.6001C29.8578 38.0821 29.5689 37.2254 29.5689 36.0301C29.5689 35.293 29.6586 34.4961 29.8379 33.6394C30.0371 32.7828 30.2264 31.956 30.4057 31.1591C30.6049 30.3423 30.7045 29.6749 30.7045 29.1569C30.7045 28.4198 30.4455 28.0513 29.9275 28.0513C29.549 28.0513 29.1705 28.2106 28.792 28.5294C28.4334 28.8282 28.1047 29.2366 27.8058 29.7546C27.5269 30.2527 27.2978 30.7806 27.1185 31.3384C26.9392 31.8962 26.8496 32.4341 26.8496 32.9521C26.8496 33.4303 26.8994 33.9582 26.999 34.5359C27.1185 35.0938 27.1783 35.6317 27.1783 36.1496C27.1783 37.1856 26.8894 37.9825 26.3117 38.5403C25.7339 39.0981 25.0566 39.377 24.2796 39.377C23.5624 39.377 22.9149 39.138 22.3372 38.6598C21.7794 38.1817 21.5004 37.4645 21.5004 36.5082C21.5004 36.0699 21.5602 35.542 21.6797 34.9244C21.7993 34.2869 21.9288 33.6295 22.0682 32.9521C22.2276 32.2548 22.3671 31.5875 22.4866 30.9499C22.6061 30.3124 22.6659 29.7546 22.6659 29.2765C22.6659 28.898 22.6061 28.5991 22.4866 28.38C22.387 28.1608 22.1778 28.0513 21.859 28.0513C21.4008 28.0513 20.9625 28.2804 20.5442 28.7386C20.1258 29.1968 19.7672 29.7546 19.4684 30.412C19.1696 31.0496 18.9703 31.6671 18.8707 32.2648C18.8508 32.4043 18.8309 32.5138 18.811 32.5935C18.811 32.6732 18.811 32.7131 18.811 32.7131C18.811 33.3306 18.8807 33.8984 19.0201 34.4164C19.1596 34.9145 19.2293 35.4324 19.2293 35.9703C19.2293 36.9465 18.9305 37.7633 18.3328 38.4208C17.7551 39.0583 17.0877 39.377 16.3306 39.377Z" fill="#4C373C"/>
<path d="M43.7544 39.4667C42.4395 39.4667 41.3239 39.1678 40.4074 38.5702C39.5109 37.9725 38.8336 37.1955 38.3754 36.2393C37.9172 35.2631 37.6881 34.2172 37.6881 33.1015C37.6881 32.0456 37.8873 30.9898 38.2857 29.9339C38.7041 28.878 39.3117 27.9118 40.1086 27.0352C40.9055 26.1387 41.8717 25.4315 43.0073 24.9135C44.1628 24.3756 45.4876 24.1067 46.9818 24.1067C48.456 24.1067 49.5517 24.4055 50.2689 25.0032C50.9861 25.5809 51.3447 26.2184 51.3447 26.9157C51.3447 27.6528 50.9762 28.3302 50.239 28.9477C49.5019 29.5653 48.4261 29.8741 47.0116 29.8741C47.0913 29.5753 47.1511 29.2765 47.1909 28.9776C47.2507 28.6589 47.2806 28.36 47.2806 28.0811C47.2806 27.6628 47.1909 27.3141 47.0116 27.0352C46.8323 26.7364 46.5136 26.587 46.0554 26.587C45.637 26.587 45.1888 26.7762 44.7106 27.1548C44.2524 27.5333 43.854 28.0911 43.5153 28.8282C43.1965 29.5653 43.0372 30.4718 43.0372 31.5476C43.0372 32.6035 43.2065 33.4601 43.5452 34.1176C43.9038 34.775 44.362 35.2531 44.9198 35.552C45.4776 35.8309 46.0653 35.9703 46.6829 35.9703C47.4997 35.9703 48.2867 35.7611 49.0437 35.3428C49.8007 34.9045 50.3486 34.3068 50.6873 33.5498L50.9861 33.6693C50.9861 34.7053 50.747 35.5918 50.2689 36.3289C49.8107 37.0461 49.213 37.6438 48.4759 38.1219C47.7388 38.5801 46.9519 38.9188 46.1151 39.1379C45.2784 39.3571 44.4915 39.4667 43.7544 39.4667Z" fill="#4C373C"/>
</g>
<defs>
<filter id="filter0_d_9_8" x="12.7413" y="24.1067" width="39.6034" height="16.36" filterUnits="userSpaceOnUse" color-interpolation-filters="sRGB">
<feFlood flood-opacity="0" result="BackgroundImageFix"/>
<feColorMatrix in="SourceAlpha" type="matrix" values="0 0 0 0 0 0 0 0 0 0 0 0 0 0 0 0 0 0 127 0" result="hardAlpha"/>
<feOffset dx="1" dy="1"/>
<feComposite in2="hardAlpha" operator="out"/>
<feColorMatrix type="matrix" values="0 0 0 0 0 0 0 0 0 0 0 0 0 0 0 0 0 0 0.25 0"/>
<feBlend mode="normal" in2="BackgroundImageFix" result="effect1_dropShadow_9_8"/>
<feBlend mode="normal" in="SourceGraphic" in2="effect1_dropShadow_9_8" result="shape"/>
</filter>
</defs>
</svg>
